<?xml version="1.0" encoding="UTF-8" standalone="no"?><svg xmlns="http://www.w3.org/2000/svg" xmlns:xlink="http://www.w3.org/1999/xlink" fill="#000000" height="1400" preserveAspectRatio="xMidYMid meet" version="1" viewBox="0.0 0.0 1403.1 1400.0" width="1403.1" zoomAndPan="magnify"><g fill="#ffffff" id="change1_1"><path d="M 1295.808594 348.398438 C 1320.898438 203.96875 1403.140625 117.058594 1359.390625 106.199219 C 1302.011719 91.960938 1112.878906 333.03125 1175.289062 546.933594 C 1219.871094 699.757812 1332.03125 774.3125 1400 796.070312 L 1400 691.582031 C 1371.378906 655.816406 1327.898438 598.1875 1305.289062 527.863281 C 1278.949219 445.925781 1295.808594 348.398438 1295.808594 348.398438" fill="inherit"/><path d="M 1371.019531 422.503906 C 1374.691406 472.628906 1385.96875 516.664062 1400 552.75 L 1400 270.570312 C 1380.039062 309.148438 1366.371094 358.949219 1371.019531 422.503906" fill="inherit"/><path d="M 712.523438 1128.75 C 692.484375 1143.75 718.011719 1206.210938 723.792969 1275 C 728.550781 1331.582031 717.53125 1400 717.53125 1400 L 793.917969 1400 C 794.765625 1260.160156 732.5625 1113.75 712.523438 1128.75" fill="inherit"/><path d="M 53.199219 798.476562 C 73.894531 775.503906 39.324219 740.460938 12.839844 707.527344 C 9.085938 702.859375 4.726562 697.488281 0 691.582031 L 0 796.070312 C 27.167969 804.765625 47.292969 805.03125 53.199219 798.476562" fill="inherit"/><path d="M 1132.019531 929.996094 C 1064.941406 857.386719 1026.839844 712.5 1004.300781 710.003906 C 981.757812 707.5 971.277344 839.664062 1044.371094 976.25 C 1152.058594 1177.5 1321.109375 1238.761719 1400 1250 L 1400 1060 C 1400 1060 1250.988281 1058.75 1132.019531 929.996094" fill="inherit"/><path d="M 78.929688 657.503906 C 95.53125 645 67.863281 563.75 65.097656 492.503906 C 62.328125 421.253906 67.226562 345.71875 107.222656 274.960938 C 140.425781 216.210938 199.640625 175.289062 266.140625 116.039062 C 329.832031 59.28125 338.03125 0 338.03125 0 L 199.578125 0 C 190.777344 58.328125 177.851562 93.328125 87.230469 168.75 C 67.085938 185.519531 27.539062 217.339844 0 270.570312 L 0 552.75 C 28.300781 625.554688 67.832031 665.859375 78.929688 657.503906" fill="inherit"/><path d="M 392.015625 963.820312 C 325.480469 923.175781 297.480469 870.484375 316.882812 840.070312 C 336.230469 809.734375 378.515625 818.613281 414.558594 839.441406 C 450.242188 860.066406 493.535156 909.128906 520.992188 952.570312 C 591.121094 1063.511719 601.136719 1192.570312 601.136719 1192.570312 C 568.578125 1083.820312 475.914062 1015.070312 392.015625 963.820312 Z M 639.894531 1081.25 C 576.066406 897.492188 458.316406 756.253906 351.882812 756.253906 C 245.4375 756.253906 216.640625 861.253906 286.765625 960.003906 C 355.472656 1056.75 470.84375 1083.75 523.4375 1176.25 C 567.113281 1253.070312 572.476562 1339.730469 540.972656 1400 L 668.699219 1400 C 668.699219 1400 707.410156 1275.628906 639.894531 1081.25" fill="inherit"/><path d="M 161.542969 936.253906 C 239.179688 851.253906 212.882812 696.25 204.117188 585 C 195.351562 473.757812 194.050781 353.710938 252.953125 290.011719 C 328.089844 208.761719 450.808594 205.011719 550.984375 150 C 651.160156 95 668.699219 0 668.699219 0 L 540.972656 0 C 510.339844 56.160156 435.777344 51.25 334.347656 110.011719 C 238.296875 165.640625 172.8125 265.011719 154.027344 370.011719 C 135.242188 475.003906 172.433594 671.601562 137.75 758.757812 C 98.425781 857.578125 0.160156 857.507812 0 857.507812 L 0 998.753906 C 0.160156 998.769531 96.503906 1007.460938 161.542969 936.253906" fill="inherit"/><path d="M 649.914062 147.5 C 605.027344 188.851562 549.257812 198.789062 541.929688 224.988281 C 535.804688 246.878906 571.636719 276.308594 599.195312 316.25 C 613.757812 337.339844 663.6875 393.128906 678.089844 524.375 C 689.238281 626.003906 691.746094 802.554688 736.621094 861.773438 C 747.113281 875.617188 763.421875 886.746094 775.6875 881.613281 C 798.277344 872.15625 753.226562 779.375 736.320312 698.75 C 719.414062 618.128906 711.898438 490.628906 723.167969 355.628906 C 734.4375 220.628906 793.34375 152.609375 793.917969 0 L 717.53125 0 C 717.53125 0 710.09375 92.058594 649.914062 147.5" fill="inherit"/><path d="M 1049.988281 65.21875 C 1033.421875 68.75 1039.328125 156.378906 1004.449219 271.160156 C 979.363281 353.71875 953.8125 423.488281 936.789062 470.257812 C 909.578125 545.015625 886.863281 621.300781 888.335938 718.613281 C 889.726562 810.476562 917.019531 885.710938 925.828125 903.632812 C 934.636719 921.554688 981.796875 1020.671875 1003.761719 1011.53125 C 1025.730469 1002.378906 941.871094 867.574219 956.578125 675.367188 C 974.96875 435.136719 1050.429688 293.828125 1070.820312 198.019531 C 1091.210938 102.210938 1064.75 62.078125 1049.988281 65.21875" fill="inherit"/><path d="M 1090.980469 258.53125 C 1024.46875 411.898438 1000.210938 611.625 1075.671875 758.753906 C 1155.808594 914.996094 1287.128906 997.027344 1399.988281 998.753906 L 1400 998.753906 L 1400 857.507812 L 1399.988281 857.507812 C 1399.828125 857.515625 1345.078125 860.144531 1294.070312 832.4375 C 1223.53125 794.113281 1152.570312 711.992188 1118.75 589.011719 C 1059.101562 372.089844 1246.449219 173.738281 1249.738281 0 L 1165.828125 0 C 1165.828125 0 1170.148438 75.988281 1090.980469 258.53125" fill="inherit"/><path d="M 1100.71875 1163.75 C 951.003906 1019.101562 873.867188 905.960938 853.859375 805.914062 C 828.632812 679.785156 843.769531 538.523438 937.105469 326.628906 C 976.109375 238.078125 1002.839844 163.761719 1016.058594 105.71875 C 1020.78125 84.96875 1024.25 67.949219 1026.511719 51.671875 C 1030.660156 21.921875 1031.21875 0 1031.21875 0 L 965.480469 0 C 957.308594 250.980469 838.746094 414.949219 838.746094 414.949219 C 905.601562 220.71875 903.488281 0 903.488281 0 L 837.75 0 C 841.269531 261.070312 745.414062 478.011719 778.898438 722.5 C 808.929688 941.800781 924.710938 1046.910156 1039.359375 1166.25 C 1108.769531 1238.511719 1141.128906 1285.25 1155.328125 1326.21875 C 1168.78125 1365.039062 1165.828125 1400 1165.828125 1400 L 1249.738281 1400 C 1251.441406 1285.570312 1150.5 1211.851562 1100.71875 1163.75" fill="inherit"/><path d="M 353.136719 492.503906 C 276.015625 365.25 353.136719 295.628906 415.121094 316.25 C 477.105469 336.878906 539.09375 443.753906 561.632812 526.253906 C 584.175781 608.75 608.589844 779.375 608.589844 779.375 C 527.824219 636.878906 414.492188 593.75 353.136719 492.503906 Z M 920.398438 1175 C 786.402344 1036.851562 717.53125 940.625 678.089844 792.5 C 638.644531 644.378906 655.546875 483.128906 589.808594 365 C 524.066406 246.878906 358.769531 216.878906 279.878906 295.628906 C 200.988281 374.378906 217.152344 534.382812 349.378906 655.625 C 510.917969 803.75 850.894531 1021.25 837.75 1400 L 903.488281 1400 C 903.707031 1274.5 861.457031 1186.21875 861.457031 1186.21875 C 973.515625 1268.890625 965.480469 1400 965.480469 1400 L 1031.21875 1400 C 1031.21875 1400 1037.398438 1295.628906 920.398438 1175" fill="inherit"/><path d="M 310.914062 1198.199219 C 280.644531 1139.550781 233.992188 1104.480469 188.886719 1088.46875 C 140.011719 1071.128906 86.878906 1065.769531 0 1060 L 0 1250 C 0 1250 70.773438 1258.488281 99.027344 1266.308594 C 121.25 1272.460938 158.542969 1277.5 184.160156 1313.601562 C 204.96875 1342.929688 199.578125 1400 199.578125 1400 L 338.03125 1400 C 338.03125 1400 353.988281 1281.660156 310.914062 1198.199219" fill="inherit"/></g></svg>